<mxfile host="www.draw.io" modified="2019-10-21T08:59:04.954Z" agent="Mozilla/5.0 (Windows NT 6.1; Win64; x64) AppleWebKit/537.36 (KHTML, like Gecko) Chrome/77.0.3865.120 Safari/537.36" etag="RbxOPl-pRaj4a629rT_O" version="12.1.3" type="github" pages="1">
  <diagram id="6a731a19-8d31-9384-78a2-239565b7b9f0" name="Page-1">
    <mxGraphModel dx="854" dy="438" grid="1" gridSize="10" guides="1" tooltips="1" connect="1" arrows="1" fold="1" page="1" pageScale="1" pageWidth="1169" pageHeight="827" background="#ffffff" math="0" shadow="0">
      <root>
        <mxCell id="0"/>
        <mxCell id="1" parent="0"/>
        <mxCell id="EAx500TFh6R00kHwpTB6-58" value="" style="edgeStyle=orthogonalEdgeStyle;rounded=0;orthogonalLoop=1;jettySize=auto;html=1;" edge="1" parent="1" source="EAx500TFh6R00kHwpTB6-55" target="EAx500TFh6R00kHwpTB6-57">
          <mxGeometry relative="1" as="geometry"/>
        </mxCell>
        <mxCell id="EAx500TFh6R00kHwpTB6-55" value="Start" style="ellipse;whiteSpace=wrap;html=1;" vertex="1" parent="1">
          <mxGeometry x="320" y="40" width="120" height="80" as="geometry"/>
        </mxCell>
        <mxCell id="EAx500TFh6R00kHwpTB6-62" value="" style="edgeStyle=orthogonalEdgeStyle;rounded=0;orthogonalLoop=1;jettySize=auto;html=1;" edge="1" parent="1" source="EAx500TFh6R00kHwpTB6-57" target="EAx500TFh6R00kHwpTB6-61">
          <mxGeometry relative="1" as="geometry"/>
        </mxCell>
        <mxCell id="EAx500TFh6R00kHwpTB6-57" value="Variable X, Y, Z" style="shape=hexagon;perimeter=hexagonPerimeter2;whiteSpace=wrap;html=1;" vertex="1" parent="1">
          <mxGeometry x="320" y="150" width="120" height="80" as="geometry"/>
        </mxCell>
        <mxCell id="EAx500TFh6R00kHwpTB6-64" value="" style="edgeStyle=orthogonalEdgeStyle;rounded=0;orthogonalLoop=1;jettySize=auto;html=1;" edge="1" parent="1" source="EAx500TFh6R00kHwpTB6-61" target="EAx500TFh6R00kHwpTB6-63">
          <mxGeometry relative="1" as="geometry"/>
        </mxCell>
        <mxCell id="EAx500TFh6R00kHwpTB6-61" value="Input Nilai X, Y, Z" style="shape=parallelogram;perimeter=parallelogramPerimeter;whiteSpace=wrap;html=1;" vertex="1" parent="1">
          <mxGeometry x="320" y="280" width="120" height="60" as="geometry"/>
        </mxCell>
        <mxCell id="EAx500TFh6R00kHwpTB6-66" value="" style="edgeStyle=orthogonalEdgeStyle;rounded=0;orthogonalLoop=1;jettySize=auto;html=1;" edge="1" parent="1" source="EAx500TFh6R00kHwpTB6-63" target="EAx500TFh6R00kHwpTB6-65">
          <mxGeometry relative="1" as="geometry"/>
        </mxCell>
        <mxCell id="EAx500TFh6R00kHwpTB6-68" value="" style="edgeStyle=orthogonalEdgeStyle;rounded=0;orthogonalLoop=1;jettySize=auto;html=1;" edge="1" parent="1" source="EAx500TFh6R00kHwpTB6-63" target="EAx500TFh6R00kHwpTB6-67">
          <mxGeometry relative="1" as="geometry"/>
        </mxCell>
        <mxCell id="EAx500TFh6R00kHwpTB6-73" value="" style="edgeStyle=orthogonalEdgeStyle;rounded=0;orthogonalLoop=1;jettySize=auto;html=1;" edge="1" parent="1" source="EAx500TFh6R00kHwpTB6-63" target="EAx500TFh6R00kHwpTB6-70">
          <mxGeometry relative="1" as="geometry"/>
        </mxCell>
        <mxCell id="EAx500TFh6R00kHwpTB6-63" value="A &amp;gt; B ?&lt;br&gt;AND&amp;nbsp;&lt;br&gt;B &amp;gt; A ?" style="rhombus;whiteSpace=wrap;html=1;" vertex="1" parent="1">
          <mxGeometry x="340" y="380" width="80" height="80" as="geometry"/>
        </mxCell>
        <mxCell id="EAx500TFh6R00kHwpTB6-72" value="" style="edgeStyle=orthogonalEdgeStyle;rounded=0;orthogonalLoop=1;jettySize=auto;html=1;" edge="1" parent="1" source="EAx500TFh6R00kHwpTB6-67" target="EAx500TFh6R00kHwpTB6-71">
          <mxGeometry relative="1" as="geometry"/>
        </mxCell>
        <mxCell id="EAx500TFh6R00kHwpTB6-67" value="A &amp;gt; C ?&lt;br&gt;AND&lt;br&gt;C &amp;gt; A ?" style="rhombus;whiteSpace=wrap;html=1;" vertex="1" parent="1">
          <mxGeometry x="460" y="380" width="80" height="80" as="geometry"/>
        </mxCell>
        <mxCell id="EAx500TFh6R00kHwpTB6-74" value="" style="edgeStyle=orthogonalEdgeStyle;rounded=0;orthogonalLoop=1;jettySize=auto;html=1;" edge="1" parent="1" source="EAx500TFh6R00kHwpTB6-65" target="EAx500TFh6R00kHwpTB6-69">
          <mxGeometry relative="1" as="geometry"/>
        </mxCell>
        <mxCell id="EAx500TFh6R00kHwpTB6-65" value="B &amp;gt; C ?&lt;br&gt;AND&amp;nbsp;&lt;br&gt;C &amp;gt; B ?" style="rhombus;whiteSpace=wrap;html=1;" vertex="1" parent="1">
          <mxGeometry x="220" y="380" width="80" height="80" as="geometry"/>
        </mxCell>
        <mxCell id="EAx500TFh6R00kHwpTB6-69" value="Tampilkan Hasil&amp;nbsp;" style="shape=parallelogram;perimeter=parallelogramPerimeter;whiteSpace=wrap;html=1;" vertex="1" parent="1">
          <mxGeometry x="200" y="500" width="120" height="60" as="geometry"/>
        </mxCell>
        <mxCell id="EAx500TFh6R00kHwpTB6-77" value="" style="edgeStyle=orthogonalEdgeStyle;rounded=0;orthogonalLoop=1;jettySize=auto;html=1;" edge="1" parent="1" source="EAx500TFh6R00kHwpTB6-70" target="EAx500TFh6R00kHwpTB6-75">
          <mxGeometry relative="1" as="geometry"/>
        </mxCell>
        <mxCell id="EAx500TFh6R00kHwpTB6-70" value="Tampilkan Hasil" style="shape=parallelogram;perimeter=parallelogramPerimeter;whiteSpace=wrap;html=1;" vertex="1" parent="1">
          <mxGeometry x="320" y="500" width="120" height="60" as="geometry"/>
        </mxCell>
        <mxCell id="EAx500TFh6R00kHwpTB6-71" value="Tampilkan Hasil" style="shape=parallelogram;perimeter=parallelogramPerimeter;whiteSpace=wrap;html=1;" vertex="1" parent="1">
          <mxGeometry x="440" y="500" width="120" height="60" as="geometry"/>
        </mxCell>
        <mxCell id="EAx500TFh6R00kHwpTB6-75" value="End" style="ellipse;whiteSpace=wrap;html=1;" vertex="1" parent="1">
          <mxGeometry x="320" y="620" width="120" height="80" as="geometry"/>
        </mxCell>
        <mxCell id="EAx500TFh6R00kHwpTB6-76" value="" style="edgeStyle=elbowEdgeStyle;elbow=horizontal;endArrow=classic;html=1;exitX=0.4;exitY=1.033;exitDx=0;exitDy=0;exitPerimeter=0;entryX=0;entryY=0.5;entryDx=0;entryDy=0;" edge="1" parent="1" source="EAx500TFh6R00kHwpTB6-69" target="EAx500TFh6R00kHwpTB6-75">
          <mxGeometry width="50" height="50" relative="1" as="geometry">
            <mxPoint x="50" y="640" as="sourcePoint"/>
            <mxPoint x="100" y="590" as="targetPoint"/>
            <Array as="points">
              <mxPoint x="248" y="650"/>
            </Array>
          </mxGeometry>
        </mxCell>
        <mxCell id="EAx500TFh6R00kHwpTB6-78" value="" style="edgeStyle=elbowEdgeStyle;elbow=horizontal;endArrow=classic;html=1;exitX=0.5;exitY=1;exitDx=0;exitDy=0;entryX=1;entryY=0.5;entryDx=0;entryDy=0;" edge="1" parent="1" source="EAx500TFh6R00kHwpTB6-71" target="EAx500TFh6R00kHwpTB6-75">
          <mxGeometry width="50" height="50" relative="1" as="geometry">
            <mxPoint x="700" y="600" as="sourcePoint"/>
            <mxPoint x="750" y="550" as="targetPoint"/>
            <Array as="points">
              <mxPoint x="500" y="610"/>
            </Array>
          </mxGeometry>
        </mxCell>
      </root>
    </mxGraphModel>
  </diagram>
</mxfile>
